<svg height="512" viewBox="0 0 58 58" width="512" xmlns="http://www.w3.org/2000/svg"><g id="Page-1" fill="none" fill-rule="evenodd"><g id="059---Note"><rect id="Rectangle-path" fill="#f3d55b" fill-rule="nonzero" height="50" rx="6" width="50" y="8"/><path id="Shape" d="m42.69 12.49-20.45 20.45c-.0213859.0111637-.0388363.0286141-.05.05h-.01c.7814829-.7814829.7814829-2.0485171 0-2.83s-2.0485171-.7814829-2.83 0l20.51-20.5z" fill="#802f34" fill-rule="nonzero"/><path id="Shape" d="m27.84 38.65c.7814829-.7814829.7814829-2.0485171 0-2.83s-2.0485171-.7814829-2.83 0l20.5-20.51 2.84 2.84z" fill="#802f34" fill-rule="nonzero"/><path id="Shape" d="m56.83 9.66-4.95 4.95-8.49-8.49 4.95-4.95c1.5642825-1.55978389 4.0957175-1.55978389 5.66 0l2.83 2.83c1.5597839 1.56428251 1.5597839 4.09571749 0 5.66z" fill="#ff5364" fill-rule="nonzero"/><path id="Shape" d="m51.879 3.293c-.2859742-.28606061-.7161158-.37167172-1.0898272-.21690842-.3737115.1547633-.6173863.51941869-.6173863.92390842s.2436748.76914512.6173863.92390842c.3737114.1547633.803853.06915219 1.0898272-.21690842.3903819-.39049985.3903819-1.02350015 0-1.414z" fill="#fdd7ad" fill-rule="nonzero"/><path id="Shape" d="m47.636 6.121-2.121 2.122c-.2599566.25107447-.3642126.62287789-.2726972.97250732.0915155.34962944.3645604.6226744.7141899.71418984.3496294.09151544.7214328-.01274058.9725073-.27269716l2.121-2.122c.2599566-.25107447.3642126-.62287789.2726972-.97250732-.0915155-.34962944-.3645604-.6226744-.7141899-.71418984-.3496294-.09151544-.7214328.01274058-.9725073.27269716z" fill="#fdd7ad" fill-rule="nonzero"/><path id="Shape" d="m22.24 32.94-.15.15" stroke="#000" stroke-linecap="round" stroke-linejoin="round" stroke-width="2"/><g fill-rule="nonzero"><path id="Shape" d="m20.15 41.87-4.65 1.94c-.3748238.1580752-.8080493.0733416-1.0956954-.2143046-.2876462-.2876461-.3723798-.7208716-.2143046-1.0956954l1.94-4.65c1.9237589.5903963 3.4296037 2.0962411 4.02 4.02z" fill="#2c3e50"/><path id="Shape" d="m25.01 35.82c.7364623-.7754118.7326329-1.9929765-.0086922-2.7637405s-1.9578181-.8219821-2.7613078-.1162595l20.45-20.45 2.82 2.82z" fill="#f29c1f"/><path id="Shape" d="m27.84 38.65-7.69 3.22c-.5903963-1.9237589-2.0962411-3.4296037-4.02-4.02l3.22-7.69c.5055308-.5055308 1.242358-.7029631 1.9329259-.5179259.690568.1850371 1.2299629.724432 1.415 1.415.1850372.6905679-.0123951 1.4273951-.5179259 1.9329259h.01c.0111637-.0213859.0286141-.0388363.05-.05.8034897-.7057226 2.0199827-.6545045 2.7613078.1162595s.7451545 1.9883287.0086922 2.7637405c.5055308-.5055308 1.242358-.7029631 1.9329259-.5179259.690568.1850371 1.2299629.724432 1.415 1.415.1850372.6905679-.0123951 1.4273951-.5179259 1.9329259z" fill="#f9eab0"/><path id="Shape" d="m6 13h-1c-.55228475 0-1-.4477153-1-1s.44771525-1 1-1h1c.55228475 0 1 .4477153 1 1s-.44771525 1-1 1z" fill="#f9eab0"/><path id="Shape" d="m25 13h-15c-.55228475 0-1-.4477153-1-1s.44771525-1 1-1h15c.5522847 0 1 .4477153 1 1s-.4477153 1-1 1z" fill="#f9eab0"/><path id="Shape" d="m46 54c-.5522847 0-1-.4477153-1-1v-2c0-.5522847.4477153-1 1-1s1 .4477153 1 1v2c0 .5522847-.4477153 1-1 1z" fill="#f9eab0"/><path id="Shape" d="m10 45h-5c-.55228475 0-1-.4477153-1-1s.44771525-1 1-1h5c.5522847 0 1 .4477153 1 1s-.4477153 1-1 1z" fill="#35495e"/><path id="Shape" d="m41 45h-16c-.5522847 0-1-.4477153-1-1s.4477153-1 1-1h16c.5522847 0 1 .4477153 1 1s-.4477153 1-1 1z" fill="#35495e"/><path id="Shape" d="m28 50h-23c-.55228475 0-1-.4477153-1-1s.44771525-1 1-1h23c.5522847 0 1 .4477153 1 1s-.4477153 1-1 1z" fill="#35495e"/><path id="Shape" d="m41 50h-7c-.5522847 0-1-.4477153-1-1s.4477153-1 1-1h7c.5522847 0 1 .4477153 1 1s-.4477153 1-1 1z" fill="#35495e"/><path id="Shape" d="m51.88 14.61-3.53 3.54-8.49-8.49 3.53-3.54z" fill="#bdc3c7"/></g></g></g></svg>