<svg height="511pt" viewBox="1 0 511.99999 511" width="511pt" xmlns="http://www.w3.org/2000/svg"><path d="m345.199219 259.398438v-258.898438h74.199219c27.058593 0 48.992187 21.933594 48.992187 48.992188v175.265624c0 6.011719 1.085937 11.769532 3.066406 17.09375 3.171875 8.515626-3.390625 17.546876-12.476562 17.546876zm0 0" fill="#bebfc0"/><path d="m419.890625 469.132812h-88.878906v-370.648437h88.878906c11.132813 0 20.160156 9.027344 20.160156 20.160156v330.332031c0 11.132813-9.027343 20.15625-20.160156 20.15625zm0 0" fill="#7397da"/><path d="m381.261719 469.132812h-312.109375c-11.136719 0-20.160156-9.023437-20.160156-20.15625v-350.492187h352.429687v350.492187c0 11.132813-9.023437 20.15625-20.160156 20.15625zm0 0" fill="#f0f0ef"/><path d="m48.992188 98.484375v350.492187c0 11.132813 9.027343 20.15625 20.160156 20.15625h195.289062c-117.644531-78.84375-132.851562-253.023437-129.632812-370.648437zm0 0" fill="#e3e2e1"/><path d="m401.421875 98.484375c-27.058594 0-48.992187-21.933594-48.992187-48.992187 0-27.058594 21.933593-48.992188 48.992187-48.992188h-352.429687c-27.058594 0-48.992188 21.933594-48.992188 48.992188 0 27.058593 21.933594 48.992187 48.992188 48.992187zm0 0" fill="#e3e2e1"/><path d="m124.707031.5h-75.714843c-27.058594 0-48.992188 21.933594-48.992188 48.992188 0 27.058593 21.933594 48.992187 48.992188 48.992187h110.402343c-51.503906-19.125-52.847656-77.523437-34.6875-97.984375zm0 0" fill="#bebfc0"/><path d="m345.199219 283.394531h-239.984375c-4.144532 0-7.5-3.359375-7.5-7.5s3.355468-7.5 7.5-7.5h239.984375c4.144531 0 7.5 3.359375 7.5 7.5s-3.355469 7.5-7.5 7.5zm0 0" fill="#495059"/><path d="m345.199219 339.957031h-239.984375c-4.144532 0-7.5-3.355469-7.5-7.5 0-4.140625 3.355468-7.5 7.5-7.5h239.984375c4.144531 0 7.5 3.359375 7.5 7.5 0 4.144531-3.355469 7.5-7.5 7.5zm0 0" fill="#495059"/><path d="m345.199219 396.523438h-239.984375c-4.144532 0-7.5-3.359376-7.5-7.5 0-4.144532 3.355468-7.5 7.5-7.5h239.984375c4.144531 0 7.5 3.355468 7.5 7.5 0 4.140624-3.355469 7.5-7.5 7.5zm0 0" fill="#495059"/><path d="m164.863281 208.046875c0-15.519531-15.796875-28.101563-35.285156-28.101563s-35.289063 12.582032-35.289063 28.101563 15.800782 28.101563 35.289063 28.101563 35.285156-12.582032 35.285156-28.101563zm0 0" fill="#eb8d9a"/><path d="m356.121094 208.046875c0-15.519531-15.796875-28.101563-35.285156-28.101563-19.488282 0-35.285157 12.582032-35.285157 28.101563s15.796875 28.101563 35.285157 28.101563c19.488281 0 35.285156-12.582032 35.285156-28.101563zm0 0" fill="#eb8d9a"/><g fill="#495059"><path d="m135.476562 182.367188c-4.140624 0-7.5-3.355469-7.5-7.5v-15.144532c0-4.140625 3.359376-7.5 7.5-7.5 4.140626 0 7.5 3.359375 7.5 7.5v15.144532c0 4.144531-3.359374 7.5-7.5 7.5zm0 0"/><path d="m225.207031 212.019531c-14.117187 0-25.566406-11.445312-25.566406-25.5625v-18.585937c0-3.855469 3.125-6.980469 6.980469-6.980469h37.171875c3.855469 0 6.980469 3.125 6.980469 6.980469v18.585937c0 14.117188-11.449219 25.5625-25.566407 25.5625zm0 0"/><path d="m314.9375 182.367188c-4.140625 0-7.5-3.355469-7.5-7.5v-15.144532c0-4.140625 3.359375-7.5 7.5-7.5s7.5 3.359375 7.5 7.5v15.144532c0 4.144531-3.355469 7.5-7.5 7.5zm0 0"/><path d="m512 265.605469c0 18.554687-15.042969 33.597656-33.601562 33.597656-18.554688 0-33.597657-15.042969-33.597657-33.597656 0-18.558594 15.042969-33.601563 33.597657-33.601563 18.558593 0 33.601562 15.042969 33.601562 33.601563zm0 0"/></g><path d="m454.640625 241.847656-190.042969 190.042969c-4.355468 4.351563-7.839844 9.492187-10.273437 15.144531l-21.941407 50.96875c-3.707031 8.609375 5.007813 17.324219 13.621094 13.617188l50.964844-21.941406c5.652344-2.433594 10.792969-5.917969 15.144531-10.269532l190.046875-190.046875zm0 0" fill="#80bbe6"/><path d="m258.648438 439.117188c-1.679688 2.496093-3.128907 5.144531-4.324219 7.917968l-21.941407 50.96875c-3.707031 8.609375 5.007813 17.324219 13.621094 13.617188l50.964844-21.941406c2.773438-1.195313 5.421875-2.644532 7.917969-4.324219zm0 0" fill="#495059"/><path d="m308.546875 442.957031c-1.917969 0-3.835937-.730469-5.300781-2.195312-2.929688-2.929688-2.929688-7.679688 0-10.609375l143.070312-143.070313c2.929688-2.929687 7.679688-2.929687 10.605469 0 2.929687 2.929688 2.929687 7.679688 0 10.605469l-143.070313 143.074219c-1.464843 1.464843-3.382812 2.195312-5.304687 2.195312zm0 0" fill="#76acd4"/></svg>